<svg xmlns="http://www.w3.org/2000/svg" width="780" height="500" viewBox="0 0 780 500" font-family="'PingFang SC','Helvetica Neue',Arial,sans-serif">
  <defs>
    <linearGradient id="bg" x1="0" y1="0" x2="1" y2="1">
      <stop offset="0" stop-color="#dfe4ee"/><stop offset="1" stop-color="#c9d2e0"/>
    </linearGradient>
    <filter id="panelShadow" x="-20%" y="-20%" width="140%" height="140%">
      <feDropShadow dx="0" dy="12" stdDeviation="22" flood-color="#1b2330" flood-opacity="0.22"/>
    </filter>
    <clipPath id="ic0"><rect x="44" y="47" width="28" height="28" rx="7"/></clipPath>
  </defs>

  <rect width="780" height="500" fill="url(#bg)"/>

  <!-- panel -->
  <rect x="20" y="18" width="740" height="464" rx="18" fill="#f6f7f9" fill-opacity="0.97" stroke="#0b1320" stroke-opacity="0.08" filter="url(#panelShadow)"/>

  <!-- selected row fill (row 0) -->
  <rect x="30" y="40" width="720" height="42" rx="11" fill="#0a84ff" fill-opacity="0.16" stroke="#0a84ff" stroke-opacity="0.32"/>

  <!-- ===== rows ===== -->
  <!-- helpers: icon x=44 size28 ; title x=86 size15 weight500 #14161a ; status cx=724 -->

  <!-- row0 飞书 (selected) center y=61 -->
  <rect x="44" y="47" width="28" height="28" rx="7" fill="#3370ff"/>
  <text x="58" y="67" font-size="15" fill="#ffffff" text-anchor="middle">飞</text>
  <circle cx="70" cy="49" r="9" fill="#ff3b30"/><text x="70" y="52.5" font-size="9" fill="#fff" text-anchor="middle" font-weight="600">151</text>
  <text x="86" y="66.5" font-size="15.5" font-weight="600" fill="#14161a">飞书</text>
  <circle cx="724" cy="61" r="11" fill="none" stroke="#b6b9c0" stroke-width="1.2"/><text x="724" y="65" font-size="11.5" fill="#9a9da4" text-anchor="middle">1</text>

  <!-- row1 GoLand center y=107 -->
  <rect x="44" y="93" width="28" height="28" rx="7" fill="#16151a"/>
  <text x="58" y="111" font-size="9.5" fill="#7ee787" text-anchor="middle" font-weight="700">GO</text>
  <text x="86" y="112.5" font-size="15.5" font-weight="500" fill="#14161a">wepie-intl-services – go.mod</text>
  <circle cx="724" cy="107" r="11" fill="none" stroke="#c7cad0" stroke-width="1.2"/><text x="724" y="111" font-size="11.5" fill="#9a9da4" text-anchor="middle">1</text>

  <!-- row2 GoLand center y=153 -->
  <rect x="44" y="139" width="28" height="28" rx="7" fill="#16151a"/>
  <text x="58" y="157" font-size="9.5" fill="#7ee787" text-anchor="middle" font-weight="700">GO</text>
  <text x="86" y="158.5" font-size="15.5" font-weight="500" fill="#14161a">wepie-expense – payment_create.go</text>
  <circle cx="724" cy="153" r="11" fill="none" stroke="#c7cad0" stroke-width="1.2"/><text x="724" y="157" font-size="11.5" fill="#9a9da4" text-anchor="middle">1</text>

  <!-- row3 Chrome center y=199 -->
  <circle cx="58" cy="199" r="14" fill="#ffffff" stroke="#e2e4e8"/><circle cx="58" cy="199" r="6.5" fill="#4285f4"/>
  <text x="86" y="204.5" font-size="15.5" font-weight="500" fill="#14161a">费用使用单 - WeExpense - Google Chrome</text>
  <circle cx="724" cy="199" r="11" fill="none" stroke="#c7cad0" stroke-width="1.2"/><text x="724" y="203" font-size="11.5" fill="#9a9da4" text-anchor="middle">3</text>

  <!-- row4 Docker center y=245 -->
  <rect x="44" y="231" width="28" height="28" rx="7" fill="#1d91e0"/>
  <text x="58" y="250" font-size="14" fill="#ffffff" text-anchor="middle">🐳</text>
  <text x="86" y="250.5" font-size="15.5" font-weight="500" fill="#14161a">Containers - Docker Desktop</text>
  <circle cx="724" cy="245" r="11" fill="none" stroke="#c7cad0" stroke-width="1.2"/><text x="724" y="249" font-size="11.5" fill="#9a9da4" text-anchor="middle">1</text>

  <!-- row5 GoLand center y=291 -->
  <rect x="44" y="277" width="28" height="28" rx="7" fill="#16151a"/>
  <text x="58" y="295" font-size="9.5" fill="#7ee787" text-anchor="middle" font-weight="700">GO</text>
  <text x="86" y="296.5" font-size="15.5" font-weight="500" fill="#14161a">wepie-proto-definitions – fee_allocation.proto</text>
  <circle cx="724" cy="291" r="11" fill="none" stroke="#c7cad0" stroke-width="1.2"/><text x="724" y="295" font-size="11.5" fill="#9a9da4" text-anchor="middle">3</text>

  <!-- row6 WeChat center y=337 -->
  <rect x="44" y="323" width="28" height="28" rx="7" fill="#07c160"/>
  <text x="58" y="341" font-size="14" fill="#ffffff" text-anchor="middle">微</text>
  <circle cx="70" cy="325" r="9" fill="#ff3b30"/><text x="70" y="328.5" font-size="9" fill="#fff" text-anchor="middle" font-weight="600">90</text>
  <text x="86" y="342.5" font-size="15.5" font-weight="500" fill="#14161a">微信</text>
  <circle cx="724" cy="337" r="11" fill="none" stroke="#c7cad0" stroke-width="1.2"/><text x="724" y="341" font-size="11.5" fill="#9a9da4" text-anchor="middle">1</text>

  <!-- row7 Claude center y=383 -->
  <rect x="44" y="369" width="28" height="28" rx="7" fill="#d97757"/>
  <text x="58" y="388" font-size="15" fill="#ffffff" text-anchor="middle">✳</text>
  <text x="86" y="388.5" font-size="15.5" font-weight="500" fill="#14161a">Claude</text>
  <circle cx="724" cy="383" r="11" fill="none" stroke="#c7cad0" stroke-width="1.2"/><text x="724" y="387" font-size="11.5" fill="#9a9da4" text-anchor="middle">1</text>

  <!-- row8 DataGrip center y=429 -->
  <rect x="44" y="415" width="28" height="28" rx="7" fill="#16151a"/>
  <text x="58" y="433" font-size="9.5" fill="#d26ad4" text-anchor="middle" font-weight="700">DG</text>
  <text x="86" y="434.5" font-size="15.5" font-weight="500" fill="#14161a">finance – fee_detail [expense_sg]</text>
  <circle cx="724" cy="429" r="11" fill="none" stroke="#c7cad0" stroke-width="1.2"/><text x="724" y="433" font-size="11.5" fill="#9a9da4" text-anchor="middle">3</text>

  <!-- caption -->
  <text x="20" y="498" font-size="13" fill="#3a4150">细化方向 · 浅色 — 满对比度文字（不压暗）· 收紧行高 · 图标加大居中 · 状态徽标做小做轻 · 柔和选中填充</text>
</svg>
